inDegrees=yes
name=ik_data_2024_11_07_17_55
DataType=double
version=3
OpenSimVersion=4.5.1
endheader
time	pelvis_tilt	pelvis_list	pelvis_rotation	pelvis_tx	pelvis_ty	pelvis_tz	hip_flexion_r	hip_adduction_r	hip_rotation_r	knee_angle_r	knee_angle_r_beta	ankle_angle_r	subtalar_angle_r	mtp_angle_r	hip_flexion_l	hip_adduction_l	hip_rotation_l	knee_angle_l	knee_angle_l_beta	ankle_angle_l	subtalar_angle_l	mtp_angle_l	lumbar_extension	lumbar_bending	lumbar_rotation	arm_flex_r	arm_add_r	arm_rot_r	elbow_flex_r	pro_sup_r	wrist_flex_r	wrist_dev_r	arm_flex_l	arm_add_l	arm_rot_l	elbow_flex_l	pro_sup_l	wrist_flex_l	wrist_dev_l
0.02555	0.0197172724930895	0.0002313747982916627	168.1883340327635	0	0.9399999999999999	0	0.2902160087968498	-0.004719269872877768	-0.07732449656559091	0.5175645248541663	0.009033205050225226	-1.96718692156779	0	0	0.2848307053459526	-0.01421637276536752	-0.07633175006380825	0.5144987671911032	0.008979697484936528	-1.96718692156779	0	0	0	0	0	0	-1.294684573083416	0	18.20231844209712	18.10130132408255	0	0	0	-1.294684573083416	0	18.20231844209712	18.10130132408255	0	0
0.06708	0.06611880331336636	0.04235354725166883	168.5349810814488	0	0.9399999999999999	0	0.2716742668135125	-0.01524283387380883	-0.4237792781453859	0.4903567703920584	0.008558340152787265	-1.971699347801863	0	0	0.3298916656414936	-0.06354490947320435	0.2666345192452188	0.5226041856029141	0.009121163723474398	-1.971699347801863	0	0	0	0	0	0	-1.297049563093064	0	18.24498706085165	18.13840274377901	0	0	0	-1.297049563093064	0	18.24498706085165	18.13840274377901	0	0
0.11893	0.1243405292266987	0.09045415812942377	168.9015715921954	0	0.9399999999999999	0	0.3073865196998303	-0.03061996039471069	-0.7989149057887774	0.5183815994485806	0.009047465692132153	-1.976212399713466	0	0	0.3747162804635438	-0.1206418931128654	0.6355272571499375	0.5202142171727092	0.009079450905348603	-1.976212399713466	0	0	0	0	0	0	-1.299423376742418	0	18.287599230109	18.17543315529156	0	0	0	-1.299423376742418	0	18.287599230109	18.17543315529156	0	0
0.16832	0.1404246720618735	0.1784434882491544	169.5849687236912	0	0.9399999999999999	0	0.2950576374764787	0.04342870373380388	-1.48589203955599	0.5398460669654268	0.009422091322488491	-1.981567708833963	0	0	0.3779545805785969	-0.2032014346478917	1.320896488546573	0.5202804233101104	0.009080606420431282	-1.981567708833963	0	0	0	0	0	0	-1.302248495578025	0	18.33811806764153	18.21935665721541	0	0	0	-1.302248495578025	0	18.33811806764153	18.21935665721541	0	0
0.20017	0.2395688770674	0.1728750850933302	169.5590930900593	0	0.9399999999999999	0	0.4642788719210746	0.03343235898854362	-1.464883007061421	0.5614929575533242	0.00979990083606627	-1.984415685485394	0	0	0.4643897926538469	-0.2164954735539313	1.297095873968854	0.5063714528618277	0.008837849090546156	-1.984415685485394	0	0	0	0	0	0	-1.30378195423644	0	18.36487292705585	18.24250188084114	0	0	0	-1.30378195423644	0	18.36487292705585	18.24250188084114	0	0
0.25025	0.2787837629049186	0.2311026146377914	169.9739909249093	0	0.9399999999999999	0	0.5734934303163136	0.06337803287739434	-1.890751776736036	0.5832966490221664	0.01018044704128657	-1.988278191297231	0	0	0.508284071121757	-0.278469435612268	1.70939723952992	0.5300510567771519	0.009251136144436704	-1.988278191297231	0	0	0	0	0	0	-1.305833299441203	0	18.40122262037193	18.27407288969104	0	0	0	-1.305833299441203	0	18.40122262037193	18.27407288969104	0	0
0.30036	0.3229032648315594	0.2951102725013148	170.4376270528044	0	0.9399999999999999	0	0.6249531618813429	0.05939900532117046	-2.355992919757636	0.5694535526901092	0.009938839431621419	-1.99243009949968	0	0	0.5430518450111329	-0.3469567451455933	2.172695585098204	0.5265578960979761	0.009190168989283884	-1.99243009949968	0	0	0	0	0	0	-1.3080436522082	0	18.44026140922784	18.30798516192235	0	0	0	-1.3080436522082	0	18.44026140922784	18.30798516192235	0	0
0.33402	0.376249931026935	0.3044092154623975	170.5469744287393	0	0.9399999999999999	0	0.6355214892240684	0.02024820116113476	-2.462314273632471	0.534011427280898	0.00932025764932594	-1.995766453799934	0	0	0.5945446026954029	-0.3568846194224984	2.287823216039607	0.516402886930184	0.009012930643735704	-1.995766453799934	0	0	0	0	0	0	-1.309791421482366	0	18.47162964369181	18.33525735397345	0	0	0	-1.309791421482366	0	18.47162964369181	18.33525735397345	0	0
0.38329	0.4093357872090665	0.308591983423056	170.5942487744658	0	0.9399999999999999	0	0.6966165715763294	-0.03423681488292545	-2.511112800885645	0.5219712726697766	0.009110117308912695	-1.997894836411012	0	0	0.615520150088386	-0.372021939926673	2.331800521585575	0.499719333642035	0.008721747707925578	-1.997894836411012	0	0	0	0	0	0	-1.310903612631147	0	18.49162347686508	18.35263157237389	0	0	0	-1.310903612631147	0	18.49162347686508	18.35263157237389	0	0
0.43465	0.400301345964638	0.2799364619024911	170.345464328627	0	0.9399999999999999	0	0.6587012822895073	-0.08265812590451463	-2.261025965379835	0.5563630776499729	0.009710367541520904	-2.001588202688915	0	0	0.6225965805956867	-0.3328249090696411	2.084249328655079	0.5260693859537799	0.00918164287883827	-2.001588202688915	0	0	0	0	0	0	-1.312899993298954	0	18.52620344563639	18.38255972809229	0	0	0	-1.312899993298954	0	18.52620344563639	18.38255972809229	0	0
0.46702	0.4541397562762907	0.31586168417872	170.6211904808652	0	0.9399999999999999	0	0.700148147574154	-0.1016945133308502	-2.534952920021514	0.5425377061199257	0.009469069288010093	-2.005308449596546	0	0	0.6708700405045123	-0.3831798387392633	2.352452974987282	0.5274013870181294	0.009204890683051237	-2.005308449596546	0	0	0	0	0	0	-1.314879767339684	0	18.56107522370349	18.41284069366303	0	0	0	-1.314879767339684	0	18.56107522370349	18.41284069366303	0	0
0.5207000000000001	0.4948833336955021	0.3305820403385151	170.7786401870454	0	0.9399999999999999	0	0.6928350666500042	-0.08379750602752538	-2.695917802799605	0.5469218974878117	0.009545587862417219	-2.009700145137126	0	0	0.7059545904256033	-0.4037473692549197	2.517539854754908	0.5185604264844157	0.009050586812699057	-2.009700145137126	0	0	0	0	0	0	-1.317222211137525	0	18.60217401516961	18.44847765816608	0	0	0	-1.317222211137525	0	18.60217401516961	18.44847765816608	0	0
0.60002	0.529157579151143	0.3446104101644098	170.8930022205741	0	0.9399999999999999	0	0.7484483516525549	-0.09393655736225702	-2.816424419779675	0.5415252861411438	0.009451399225967378	-2.013232949571036	0	0	0.7333300560142921	-0.4205210558743182	2.633945939825107	0.5155677097283018	0.008998354051725267	-2.013232949571036	0	0	0	0	0	0	-1.319109011074181	0	18.63519698859217	18.4770910456499	0	0	0	-1.319109011074181	0	18.63519698859217	18.4770910456499	0	0
0.61431	0.4924595255630965	0.426691610224516	171.5216041128687	0	0.9399999999999999	0	0.7617690128687182	-0.009218511223367401	-3.450409412756063	0.545818629591873	0.009526332205101537	-2.017332042069508	0	0	0.6984365372033723	-0.4888987177303368	3.262692093981021	0.5280111078044338	0.009215532318290098	-2.017332042069508	0	0	0	0	0	0	-1.321310811305529	0	18.67350056164235	18.51032417426755	0	0	0	-1.321310811305529	0	18.67350056164235	18.51032417426755	0	0
0.65716	0.5098887868955686	0.4293717374178066	171.5261269851639	0	0.9399999999999999	0	0.7487336290366846	-0.02024657875812097	-3.455718071765654	0.5590693610718634	0.009757601097725032	-2.018103238652857	0	0	0.7253004186850561	-0.4968326975597731	3.257997460598685	0.5484574159860843	0.009572387715937354	-2.018103238652857	0	0	0	0	0	0	-1.321778337297242	0	18.68063649694406	18.51640962785067	0	0	0	-1.321778337297242	0	18.68063649694406	18.51640962785067	0	0
0.70604	0.5114509828724993	0.4370011530170817	171.6082022131422	0	0.9399999999999999	0	0.6378924062625374	-0.009117740642579314	-3.530954687144773	0.5437649677310381	0.009490489043907336	-2.02067752669526	0	0	0.7258419320660437	-0.5002209293891633	3.348142018377064	0.5262747016556242	0.009185226313841494	-2.02067752669526	0	0	0	0	0	0	-1.323134965702106	0	18.70469698588234	18.53732330895393	0	0	0	-1.323134965702106	0	18.70469698588234	18.53732330895393	0	0
0.75052	0.5413679107044286	0.4942001805659705	172.0248294211541	0	0.9399999999999999	0	0.7103649002654508	0.0339038414965461	-3.951722491283254	0.5694848808712888	0.009939386211531663	-2.024809483709714	0	0	0.7396882217168336	-0.555446043880072	3.765462702070132	0.5250439637025961	0.009163745884331899	-2.024809483709714	0	0	0	0	0	0	-1.325354979053254	0	18.74324163774543	18.57075866070265	0	0	0	-1.325354979053254	0	18.74324163774543	18.57075866070265	0	0
0.78943	0.4770878881017265	0.5975000643013076	172.843533921715	0	0.9399999999999999	0	0.626390598381911	0.1178628800825405	-4.790369273280494	0.6188831956350946	0.0108015494490966	-2.029569047720158	0	0	0.6724908133403049	-0.6391036336784991	4.599187823756347	0.5105899618569103	0.008911475962035344	-2.029569047720158	0	0	0	0	0	0	-1.327927823198734	0	18.78758650067245	18.60920889239165	0	0	0	-1.327927823198734	0	18.78758650067245	18.60920889239165	0	0
0.8337	0.4421927909485431	0.6410753444358978	173.1866889371242	0	0.9399999999999999	0	0.5927158403288835	0.1631424113843069	-5.120533710997555	0.6243784083182407	0.01089745900351485	-2.034313286152001	0	0	0.6337441611386472	-0.6755631900222332	4.926978612069348	0.5220855052894359	0.009112111044238926	-2.034313286152001	0	0	0	0	0	0	-1.330459675599038	0	18.83176672014599	18.64754950329752	0	0	0	-1.330459675599038	0	18.83176672014599	18.64754950329752	0	0
0.88366	0.4133377464924036	0.6716876478815405	173.3990167457008	0	0.9399999999999999	0	0.5085290741983529	0.1944022203182798	-5.332170917803557	0.6232458311949243	0.01087769180368021	-2.038113070367324	0	0	0.6080128038863915	-0.696171276611962	5.139742335517542	0.5282726856925842	0.009220097713688735	-2.038113070367324	0	0	0	0	0	0	-1.332497592430932	0	18.86710922403392	18.67819912684262	0	0	0	-1.332497592430932	0	18.86710922403392	18.67819912684262	0	0
0.92803	0.4183739659900522	0.6721401218207396	173.4203370690245	0	0.9399999999999999	0	0.5003703835817449	0.2123746257108913	-5.341298553008619	0.6176915621162983	0.01078075152071648	-2.03920590960328	0	0	0.6229745756386157	-0.6896484307536567	5.147685167373124	0.5434657108688108	0.009485266026352281	-2.03920590960328	0	0	0	0	0	0	-1.333117102648991	0	18.87722670114835	18.68689006660881	0	0	0	-1.333117102648991	0	18.87722670114835	18.68689006660881	0	0
0.96775	0.4070020446219305	0.6125621999086573	172.9955132071417	0	0.9399999999999999	0	0.4624749639240485	0.1821037223951589	-4.926949679595293	0.6635136696063803	0.01158049816662116	-2.043155286185188	0	0	0.6019367743918114	-0.6458078759677369	4.732956000082819	0.5233371463343642	0.009133956301526028	-2.043155286185188	0	0	0	0	0	0	-1.335257045176557	0	18.91391259479924	18.71869259862358	0	0	0	-1.335257045176557	0	18.91391259479924	18.71869259862358	0	0
1.01753	0.3793017293454803	0.6079377328116001	172.9071973480496	0	0.9399999999999999	0	0.3699723665158506	0.1942602279240905	-4.842835381915431	0.6571377372530258	0.0114692171541707	-2.049333902214785	0	0	0.5605132771084843	-0.6381203646596002	4.636334900310982	0.5099851359689076	0.008900919758888398	-2.049333902214785	0	0	0	0	0	0	-1.338519767000806	0	18.97129499198556	18.76852530894077	0	0	0	-1.338519767000806	0	18.97129499198556	18.76852530894077	0	0
1.06695	0.3626997131460136	0.6528534223413576	173.2858709484251	0	0.9399999999999999	0	0.3125177544492242	0.2597393933174788	-5.207057511019144	0.6388505604713426	0.01115004570843607	-2.053742589164582	0	0	0.5545760578850935	-0.6745271846775347	5.026014622759571	0.5247093860814007	0.009157906403238551	-2.053742589164582	0	0	0	0	0	0	-1.340900638155211	0	19.01215750737774	18.80393826933716	0	0	0	-1.340900638155211	0	19.01215750737774	18.80393826933716	0	0
1.10086	0.3068426128043545	0.6214283200763923	173.0507302592667	0	0.9399999999999999	0	0.2132758736817265	0.2282889632597163	-4.979161292440633	0.6942697010418953	0.01211729218001778	-2.057254792488432	0	0	0.5007886888542414	-0.6434540797142422	4.782976135716544	0.5294942669348415	0.009241418328446728	-2.057254792488432	0	0	0	0	0	0	-1.342802041083002	0	19.04468211424225	18.83211834362279	0	0	0	-1.342802041083002	0	19.04468211424225	18.83211834362279	0	0
1.15552	0.2497890448970936	0.6230795226578948	173.0598079904125	0	0.9399999999999999	0	0.165635399428206	0.285103072899869	-4.991153017123671	0.7251764979799149	0.01265671754783152	-2.059499303266613	0	0	0.4470940657690307	-0.6225979924487299	4.796662283923522	0.5217503161829169	0.009106260890713352	-2.059499303266613	0	0	0	0	0	0	-1.344002816398905	0	19.06546178306915	18.85013017845678	0	0	0	-1.344002816398905	0	19.06546178306915	18.85013017845678	0	0
